<svg width="20" height="20" viewBox="0 0 20 20" xmlns="http://www.w3.org/2000/svg" xmlns:xlink="http://www.w3.org/1999/xlink">
    <defs>
        <path id="wz4w7juo1a" d="M0 0h20v20H0z"/>
    </defs>
    <g transform="translate(0 .01)" fill="none" fill-rule="evenodd">
        <mask id="vs7mga11xb" fill="#fff">
            <use xlink:href="#wz4w7juo1a"/>
        </mask>
        <path d="M15.833 2.708c.806 0 1.459.653 1.459 1.459V7.5a.625.625 0 0 1-1.25 0V4.167a.209.209 0 0 0-.209-.209H12.5a.625.625 0 1 1 0-1.25h3.333zm.834 9.167c.345 0 .625.28.625.625v3.333c0 .806-.653 1.459-1.459 1.459H12.5a.625.625 0 0 1 0-1.25h3.333a.209.209 0 0 0 .209-.209V12.5c0-.345.28-.625.625-.625zm-13.334 0c.346 0 .625.28.625.625v3.333c0 .115.094.209.209.209H7.5a.625.625 0 1 1 0 1.25H4.167a1.459 1.459 0 0 1-1.459-1.459V12.5c0-.345.28-.625.625-.625zM7.5 2.708a.625.625 0 1 1 0 1.25H4.167a.209.209 0 0 0-.209.209V7.5a.625.625 0 1 1-1.25 0V4.167c0-.806.653-1.459 1.459-1.459H7.5z" fill="#FFF" mask="url(#vs7mga11xb)"/>
    </g>
</svg>
