<svg width="24" height="24" viewBox="0 0 24 24" xmlns="http://www.w3.org/2000/svg" xmlns:xlink="http://www.w3.org/1999/xlink">
    <defs>
        <path id="bu3ki1ktaa" d="M0 0h24v24H0z"/>
        <path id="3bl40h9zuc" d="M0 0h24v24H0z"/>
    </defs>
    <g fill="none" fill-rule="evenodd">
        <mask id="b33ectk3cb" fill="#fff">
            <use xlink:href="#bu3ki1ktaa"/>
        </mask>
        <g mask="url(#b33ectk3cb)">
            <mask id="uannyexkxd" fill="#fff">
                <use xlink:href="#3bl40h9zuc"/>
            </mask>
            <path d="M12 2.75A9.25 9.25 0 0 1 21.25 12 9.25 9.25 0 0 1 12 21.25 9.25 9.25 0 0 1 2.75 12 9.25 9.25 0 0 1 12 2.75zm4.783 6.544a.75.75 0 0 0-1.06.01l-4.654 4.735-2.5-2.553a.75.75 0 0 0-1.072 1.05l3.036 3.1c.294.3.777.3 1.071 0l5.188-5.281a.75.75 0 0 0-.01-1.06z" fill="#111" opacity=".3" mask="url(#uannyexkxd)"/>
        </g>
    </g>
</svg>
