<svg width="160" height="122" viewBox="0 0 160 122" xmlns="http://www.w3.org/2000/svg" xmlns:xlink="http://www.w3.org/1999/xlink">
    <defs>
        <path id="2a7us214aa" d="M0 0h160v122H0z"/>
    </defs>
    <g fill="none" fill-rule="evenodd">
        <mask id="ly9r5x8leb" fill="#fff">
            <use xlink:href="#2a7us214aa"/>
        </mask>
        <path d="M87.929 57.126c-.366.289-.536.481-.6.561-.043.164-.143.649-.143 1.675l.049 14.107H72.057l.024-14.135c.022-3.153.525-5.412 1.583-7.107.904-1.448 2.452-2.99 4.87-4.849.062-.051.12-.103.18-.154H64.742l.04-4.039c.055-5.623 2.594-8.789 4.714-10.455 2.803-2.203 6.432-3.32 10.785-3.32 4.72 0 8.525 1.257 11.305 3.737 2.912 2.598 4.389 6.152 4.389 10.565 0 2.915-.837 5.608-2.487 8.006-1.452 2.106-3.321 3.924-5.56 5.408M80.359 11C52.498 11 27.273 22.28 9 40.522l71.358 71.357 71.359-71.357C133.444 22.28 108.217 11 80.357 11" fill="#CAD0DD" opacity=".5" mask="url(#ly9r5x8leb)"/>
        <path d="M76.3 58.952c.016-2.327.342-4 .976-5.017.635-1.017 1.962-2.299 3.98-3.845 1.172-.977 2.1-1.998 2.783-3.064.684-1.066 1.025-2.283 1.025-3.65 0-1.514-.386-2.69-1.16-3.528-.772-.838-1.908-1.257-3.405-1.257-1.237 0-2.266.35-3.088 1.05-.822.7-1.241 1.757-1.258 3.173H69c.033-3.255 1.095-5.704 3.186-7.348C74.278 33.822 77.049 33 80.499 33c3.727 0 6.608.907 8.643 2.722 2.034 1.815 3.051 4.342 3.051 7.58 0 2.1-.594 4.013-1.782 5.738-1.188 1.725-2.718 3.198-4.59 4.419-1.025.781-1.684 1.546-1.977 2.295-.293.749-.44 1.815-.44 3.198H76.3zm7.153 10.108h-7.178v-6.104h7.178v6.104z" fill="#CAD0DD" opacity=".5" mask="url(#ly9r5x8leb)"/>
    </g>
</svg>
