<svg width="160" height="122" viewBox="0 0 160 122" xmlns="http://www.w3.org/2000/svg" xmlns:xlink="http://www.w3.org/1999/xlink">
    <defs>
        <path id="00ut9ktx6a" d="M0 0h160v122H0z"/>
    </defs>
    <g fill="none" fill-rule="evenodd">
        <mask id="v469p1oe2b" fill="#fff">
            <use xlink:href="#00ut9ktx6a"/>
        </mask>
        <path d="m34.748 23.8 67.726 67.725L80 114 8.64 42.643A101.288 101.288 0 0 1 34.748 23.8zm-1.49-18.463 96.166 96.167a3 3 0 1 1-4.242 4.243L29.015 9.58a3 3 0 0 1 4.243-4.243zM80 13.12c27.86 0 53.085 11.28 71.358 29.523l-36.156 36.154-62.065-62.065A101.105 101.105 0 0 1 80 13.12z" fill="#CAD0DD" opacity=".5" mask="url(#v469p1oe2b)"/>
    </g>
</svg>
