<svg width="24" height="24" viewBox="0 0 24 24" xmlns="http://www.w3.org/2000/svg" xmlns:xlink="http://www.w3.org/1999/xlink">
    <defs>
        <path id="be3p71avna" d="M0 0h24v24H0z"/>
    </defs>
    <g fill="none" fill-rule="evenodd">
        <mask id="ajg00jabrb" fill="#fff">
            <use xlink:href="#be3p71avna"/>
        </mask>
        <path d="M12 2.75A9.25 9.25 0 0 1 21.25 12 9.25 9.25 0 0 1 12 21.25 9.25 9.25 0 0 1 2.75 12 9.25 9.25 0 0 1 12 2.75zm0 1.5c-4.273 0-7.75 3.477-7.75 7.75s3.477 7.75 7.75 7.75 7.75-3.477 7.75-7.75S16.273 4.25 12 4.25zm.475 6.43c.354 0 .643.288.643.643v4.153h.873c.382 0 .694.311.694.693a.695.695 0 0 1-.694.694h-3.46a.694.694 0 0 1 0-1.387h.873v-3.409h-.736a.695.695 0 0 1 0-1.388h1.807zM12 6.808a1.26 1.26 0 0 1 0 2.519 1.26 1.26 0 0 1 0-2.52z" fill="#111" mask="url(#ajg00jabrb)"/>
    </g>
</svg>
