<svg width="32" height="32" viewBox="0 0 32 32" xmlns="http://www.w3.org/2000/svg" xmlns:xlink="http://www.w3.org/1999/xlink">
    <defs>
        <path id="u5btoqce2a" d="M0 0h32v32H0z"/>
    </defs>
    <g fill="none" fill-rule="evenodd">
        <mask id="liailk9wxb" fill="#fff">
            <use xlink:href="#u5btoqce2a"/>
        </mask>
        <path d="M8 13.334c-.884 0-1.6.688-1.6 1.536l1.066 9.728c0 .848.717 1.536 1.6 1.536h13.868c.883 0 1.6-.688 1.6-1.536L25.6 14.87c0-.848-.716-1.536-1.6-1.536H8z" fill="#E54A50" fill-rule="nonzero" mask="url(#liailk9wxb)"/>
        <path d="M16 5.934c2.936 0 5.266 2.615 5.266 5.788v.604h-2v-.604c0-2.117-1.49-3.788-3.266-3.788-1.777 0-3.266 1.671-3.266 3.788v.6h-2v-.6c0-3.173 2.33-5.788 5.266-5.788z" fill="#D23138" fill-rule="nonzero" mask="url(#liailk9wxb)"/>
    </g>
</svg>
