<?xml version="1.0" encoding="UTF-8"?>
<svg width="24px" height="24px" viewBox="0 0 24 24" version="1.1" xmlns="http://www.w3.org/2000/svg" xmlns:xlink="http://www.w3.org/1999/xlink">
    <title>DF77D66C-1EA2-4C3A-8A59-02D132FFBB44</title>
    <defs>
        <rect id="path-1" x="0" y="0" width="24" height="24"></rect>
    </defs>
    <g id="[무드업-냉장고]-GUI" stroke="none" stroke-width="1" fill="none" fill-rule="evenodd">
        <g id="[무드업-냉장고]-컬러모드-Main---냉장고_파티-모드-적용-시" transform="translate(-40, -838)">
            <g id="List" transform="translate(20, 759)">
                <g id="ic_volume_fill" transform="translate(20, 79)">
                    <mask id="mask-2" fill="white">
                        <use xlink:href="#path-1"></use>
                    </mask>
                    <g id="Contianer-(Mask)"></g>
                    <path d="M18.3823532,5.62259311 C20.0661738,7.30529119 21.0302,9.58264498 21.0302,12.0101 C21.0302,14.4372226 20.0673795,16.7135806 18.3855301,18.3954301 C18.0926369,18.6883233 17.6177631,18.6883233 17.3248699,18.3954301 C17.0319767,18.1025369 17.0319767,17.6276631 17.3248699,17.3347699 C18.7282037,15.9314361 19.5302,14.0353083 19.5302,12.0101 C19.5302,9.98480293 18.7271826,8.08780598 17.3220468,6.68360689 C17.0290559,6.39081135 17.0288976,5.91593765 17.3216931,5.62294678 C17.6144886,5.32995591 18.0893624,5.32979757 18.3823532,5.62259311 Z M16.2026301,7.80776991 C17.3096422,8.91478204 17.9433,10.4130119 17.9433,12.0101 C17.9433,13.6073714 17.3094856,15.1065745 16.2026301,16.2134301 C15.9097369,16.5063233 15.4348631,16.5063233 15.1419699,16.2134301 C14.8490767,15.9205369 14.8490767,15.4456631 15.1419699,15.1527699 C15.9702482,14.3244917 16.4433,13.2055508 16.4433,12.0101 C16.4433,10.8149131 15.9704578,9.69691796 15.1419699,8.86843009 C14.8490767,8.57553687 14.8490767,8.10066313 15.1419699,7.80776991 C15.4348631,7.5148767 15.9097369,7.5148767 16.2026301,7.80776991 Z M11.749,4.1253 C12.231,3.6913 13,4.0333 13,4.6833 L13,19.3173 C13,19.9663 12.231,20.3093 11.749,19.8753 L6.606,15.2494531 L4,15.25 C3.448,15.25 3,14.802 3,14.25 L3,9.75 C3,9.198 3.448,8.75 4,8.75 L6.605,8.74945314 Z" id="Combined-Shape" fill="#606C80" mask="url(#mask-2)"></path>
                </g>
            </g>
        </g>
    </g>
</svg>