<svg width="24" height="24" viewBox="0 0 24 24" xmlns="http://www.w3.org/2000/svg" xmlns:xlink="http://www.w3.org/1999/xlink">
    <defs>
        <path id="ayq4wk8gsa" d="M0 0h24v24H0z"/>
    </defs>
    <g fill="none" fill-rule="evenodd">
        <mask id="u8rh9boylb" fill="#fff">
            <use xlink:href="#ayq4wk8gsa"/>
        </mask>
        <path d="m19.506 3.384 2.014 3.22a.147.147 0 0 1-.125.224h-1.264v8.724a5.14 5.14 0 0 1-5.133 5.134H7.592a5.14 5.14 0 0 1-5.135-5.134v-7.03a5.142 5.142 0 0 1 5.135-5.136l8.138-.002a.75.75 0 0 1 0 1.5l-8.138.002a3.64 3.64 0 0 0-3.635 3.637v7.029a3.639 3.639 0 0 0 3.635 3.634h7.406a3.638 3.638 0 0 0 3.633-3.634V6.829h-1.263a.147.147 0 0 1-.125-.225l2.014-3.22a.147.147 0 0 1 .25 0zm-4.248 5.453c1.388 0 2.185.804 2.185 2.206 0 1.406-.8 2.213-2.195 2.213h-1.86v2.34h-1.276V8.837zm-8.355 0v4.837c0 .522.27.788.797.788h1.234c.545 0 .787-.243.787-.788V8.837h1.29v4.837c0 1.185-.756 1.921-1.972 1.921H7.587c-1.207 0-1.957-.736-1.957-1.92V8.836h1.273zm8.292 1.139h-1.808v2.136h1.808c.828 0 .952-.67.952-1.069 0-.658-.364-1.067-.952-1.067z" fill="#C00011" mask="url(#u8rh9boylb)"/>
    </g>
</svg>
