<svg width="24" height="24" viewBox="0 0 24 24" xmlns="http://www.w3.org/2000/svg" xmlns:xlink="http://www.w3.org/1999/xlink">
    <defs>
        <path id="l6091uzj2a" d="M0 0h24v24H0z"/>
        <path d="M19.784 9.27a.871.871 0 0 1-.859-.882c0-.486.385-.882.859-.882.473 0 .859.396.859.882a.871.871 0 0 1-.86.881M4.217 20.106a.871.871 0 0 1-.859-.881c0-.487.386-.882.86-.882.473 0 .858.395.858.882a.871.871 0 0 1-.859.881M22 8.377c0-1.261-.997-2.283-2.228-2.283-.501 0-.964.17-1.336.456l-6.014-3.924a.77.77 0 0 0-.844 0L3.806 7.697a.81.81 0 0 0-.364.68v8.703A2.283 2.283 0 0 0 2 19.217c0 1.26.997 2.283 2.228 2.283 1.23 0 2.227-1.022 2.227-2.283 0-.09-.005-.18-.015-.267l9.82-5.207a.808.808 0 0 0 .424-.71.809.809 0 0 0-.415-.716L10.093 8.93a.77.77 0 0 0-.774.02.81.81 0 0 0-.382.69v5.045l1.572-.835v-2.865l3.701 2.03-8.492 4.504a2.218 2.218 0 0 0-.704-.44V8.82L12 4.261l5.592 3.648a2.35 2.35 0 0 0-.047.468c0 .978.599 1.811 1.441 2.137v7.897H8.99v.806c0 .444.352.805.786.805h9.997c.434 0 .786-.36.786-.805v-8.703A2.283 2.283 0 0 0 22 8.377" id="d2tyempuob"/>
    </defs>
    <g fill="none" fill-rule="evenodd">
        <mask id="0loendy4xc" fill="#fff">
            <use xlink:href="#d2tyempuob"/>
        </mask>
        <use fill="#FD312E" xlink:href="#d2tyempuob"/>
        <path d="M18.93 10.497c.27.102.545.152.824.152.262 0 .534-.05.817-.152l-.02 9.476L18.97 18.4l-.039-7.903z" fill="#FD5B2E" mask="url(#0loendy4xc)"/>
        <path fill="#FE9C10" mask="url(#0loendy4xc)" d="m8.885 18.354 10.077.04 1.809 1.757H8.885z"/>
        <path fill="#B34FFF" mask="url(#0loendy4xc)" d="m5.397 9.03-2.35-1.387L12 2.046v2.53z"/>
        <path d="m11.974 2.244 6.486 4.302c-.223.17-.404.361-.54.575a2.555 2.555 0 0 0-.335.793l-5.592-3.509-.02-2.16z" fill="#E757B4" mask="url(#0loendy4xc)"/>
        <path d="m3.44 7.874 1.616.938-.026 8.28a2.505 2.505 0 0 0-.792-.146 2.241 2.241 0 0 0-.804.14l.006-9.212z" fill="#8862F2" mask="url(#0loendy4xc)"/>
    </g>
</svg>
